# xmcd
# 
# Track frame offsets:
#     150
#     49331
#     75812
#     125881
#     142791
#     165180
#     187421
#     202662
#     239558
#     281398
#     293613
# 
# Disc length: 4116
# 
# Revision: 2
# Processed by: cddbd v1.5.2PL0 Copyright (c) Steve Scherf et al.
# Submitted via: fre:ac v1.0.31
# 
DISCID=9310120b
DTITLE=Sun Ra - In The Orbit Of Ra Disc 2
DYEAR=2014
DGENRE=Jazz
TTITLE0=Astro Black
TTITLE1=Sun Ra And His Intergalactic Infinity Arkestra - Have You Heard The Latest News From Neptune
TTITLE2=Sun Ra - Dance Of The Cosmo Aliens (Live In Milan, 1978)
TTITLE3=Sun Ra - Trying To Put The Blame On Me (Live In Rome, 1977)
TTITLE4=Sun Ra And His Solar Arkestra - Planet Earth
TTITLE5=Sun Ra And His Myth Science Arkestra - The Nile
TTITLE6=Sun Ra And His Solar Arkestra - Reflects Motion (Part 1)
TTITLE7=Sun Ra And His Solar Arkestra - Reflects Motion (Part 2)
TTITLE8=Ancient Aiethiopia
TTITLE9=Sun Ra And His Myth Science Arkestra - Interplanetary Music
TTITLE10=Sun Ra And His Myth Science Arkestra - We Travel The Spaceways
EXTD=YEAR: 2014
EXTT0=
EXTT1=
EXTT2=
EXTT3=
EXTT4=
EXTT5=
EXTT6=
EXTT7=
EXTT8=
EXTT9=
EXTT10=
PLAYORDER=
